<svg xmlns="http://www.w3.org/2000/svg" width="1400" height="650" viewBox="0 0 1400 650">
  <defs>
    <marker id="arrow" viewBox="0 0 10 10" refX="9" refY="5" markerWidth="8" markerHeight="8" orient="auto-start-reverse">
      <path d="M 0 0 L 10 5 L 0 10 z" fill="#334155"/>
    </marker>
    <marker id="arrow-soft" viewBox="0 0 10 10" refX="9" refY="5" markerWidth="8" markerHeight="8" orient="auto-start-reverse">
      <path d="M 0 0 L 10 5 L 0 10 z" fill="#64748b"/>
    </marker>
    <style>
      .bg { fill: #f8fafc; }
      .title { font: 700 30px Arial, sans-serif; fill: #0f172a; }
      .subtitle { font: 400 14px Arial, sans-serif; fill: #475569; }
      .box { fill: #ffffff; stroke: #334155; stroke-width: 2; rx: 16; ry: 16; }
      .box-soft { fill: #eff6ff; stroke: #3b82f6; stroke-width: 2; rx: 16; ry: 16; }
      .box-warm { fill: #fff7ed; stroke: #f97316; stroke-width: 2; rx: 16; ry: 16; }
      .box-green { fill: #ecfdf5; stroke: #10b981; stroke-width: 2; rx: 16; ry: 16; }
      .box-violet { fill: #f5f3ff; stroke: #8b5cf6; stroke-width: 2; rx: 16; ry: 16; }
      .text { font: 400 15px Arial, sans-serif; fill: #0f172a; }
      .text-small { font: 400 13px Arial, sans-serif; fill: #334155; }
      .text-bold { font: 700 16px Arial, sans-serif; fill: #0f172a; }
      .label { font: 700 13px Arial, sans-serif; fill: #475569; }
      .line { stroke: #334155; stroke-width: 2.2; fill: none; marker-end: url(#arrow); }
      .line-soft { stroke: #64748b; stroke-width: 1.8; fill: none; marker-end: url(#arrow-soft); stroke-dasharray: 5 4; }
      .lifeline { stroke: #94a3b8; stroke-width: 1.8; stroke-dasharray: 8 6; }
    </style>
  </defs>
  <rect class="bg" x="0" y="0" width="1400" height="650"/>
  <text class="title" x="40" y="48">Component Diagram</text>
  <rect class="box-warm" x="70" y="150" width="170" height="110" rx="16" ry="16"/><text class="text-bold" x="155.0" y="178" text-anchor="middle">Kullanıcı</text><text class="text-small" x="155.0" y="202" text-anchor="middle">Metin girer</text><text class="text-small" x="155.0" y="221" text-anchor="middle">Kartları yönetir</text><rect class="box-soft" x="70" y="360" width="170" height="110" rx="16" ry="16"/><text class="text-bold" x="155.0" y="388" text-anchor="middle">Tarayıcı</text><text class="text-small" x="155.0" y="412" text-anchor="middle">HTML / CSS</text><text class="text-small" x="155.0" y="431" text-anchor="middle">Jinja2 sayfaları</text><rect class="box" x="330" y="220" width="260" height="260" rx="16" ry="16"/><text class="text-bold" x="460.0" y="248" text-anchor="middle">Flask Uygulaması</text><text class="text-small" x="460.0" y="272" text-anchor="middle">routes.py</text><text class="text-small" x="460.0" y="291" text-anchor="middle">__init__.py</text><text class="text-small" x="460.0" y="310" text-anchor="middle">session yönetimi</text><text class="text-small" x="460.0" y="329" text-anchor="middle">blueprint</text><rect class="box-green" x="680" y="120" width="240" height="140" rx="16" ry="16"/><text class="text-bold" x="800.0" y="148" text-anchor="middle">Gemini API</text><text class="text-small" x="800.0" y="172" text-anchor="middle">Flashcard üretimi</text><text class="text-small" x="800.0" y="191" text-anchor="middle">JSON yanıtı</text><rect class="box-violet" x="680" y="360" width="240" height="140" rx="16" ry="16"/><text class="text-bold" x="800.0" y="388" text-anchor="middle">SQLite DB</text><text class="text-small" x="800.0" y="412" text-anchor="middle">cards tablosu</text><text class="text-small" x="800.0" y="431" text-anchor="middle">created_at</text><rect class="box" x="1010" y="210" width="300" height="160" rx="16" ry="16"/><text class="text-bold" x="1160.0" y="238" text-anchor="middle">Uygulama Katmanları</text><text class="text-small" x="1160.0" y="262" text-anchor="middle">templates/</text><text class="text-small" x="1160.0" y="281" text-anchor="middle">static/</text><text class="text-small" x="1160.0" y="300" text-anchor="middle">nlp_utils.py</text><text class="text-small" x="1160.0" y="319" text-anchor="middle">models.py</text><path class="line" d="M 240 205 L 330 280"/><text class="label" x="285.0" y="236.5" text-anchor="middle">POST /, /cards</text><path class="line-soft" d="M 330 330 L 240 415"/><text class="label" x="285.0" y="366.5" text-anchor="middle">render_template</text><path class="line" d="M 590 280 L 680 190"/><text class="label" x="635.0" y="229.0" text-anchor="middle">generateContent</text><path class="line" d="M 680 420 L 590 410"/><text class="label" x="635.0" y="409.0" text-anchor="middle">CRUD sorguları</text><path class="line" d="M 590 350 L 1010 290"/><text class="label" x="800.0" y="314.0" text-anchor="middle">temel akış</text><path class="line-soft" d="M 1010 330 L 420 470"/><text class="label" x="715.0" y="394.0" text-anchor="middle">Jinja2 / static</text><text class="text" x="700" y="560" text-anchor="middle" style="font-size:15px; fill:#0f172a;"><tspan x="700" dy="0">Veri akışı: kullanıcı not girer, Flask metni işler, Gemini kart üretir,</tspan><tspan x="700" dy="20">sonuç session'a yazılır ve SQLite'da saklanır.</tspan></text>
</svg>
