<svg xmlns="http://www.w3.org/2000/svg" width="1400" height="980" viewBox="0 0 1400 980">
  <defs>
    <marker id="arrow" viewBox="0 0 10 10" refX="9" refY="5" markerWidth="8" markerHeight="8" orient="auto-start-reverse">
      <path d="M 0 0 L 10 5 L 0 10 z" fill="#334155"/>
    </marker>
    <marker id="arrow-soft" viewBox="0 0 10 10" refX="9" refY="5" markerWidth="8" markerHeight="8" orient="auto-start-reverse">
      <path d="M 0 0 L 10 5 L 0 10 z" fill="#64748b"/>
    </marker>
    <style>
      .bg { fill: #f8fafc; }
      .title { font: 700 30px Arial, sans-serif; fill: #0f172a; }
      .subtitle { font: 400 14px Arial, sans-serif; fill: #475569; }
      .box { fill: #ffffff; stroke: #334155; stroke-width: 2; rx: 16; ry: 16; }
      .box-soft { fill: #eff6ff; stroke: #3b82f6; stroke-width: 2; rx: 16; ry: 16; }
      .box-warm { fill: #fff7ed; stroke: #f97316; stroke-width: 2; rx: 16; ry: 16; }
      .box-green { fill: #ecfdf5; stroke: #10b981; stroke-width: 2; rx: 16; ry: 16; }
      .box-violet { fill: #f5f3ff; stroke: #8b5cf6; stroke-width: 2; rx: 16; ry: 16; }
      .text { font: 400 15px Arial, sans-serif; fill: #0f172a; }
      .text-small { font: 400 13px Arial, sans-serif; fill: #334155; }
      .text-bold { font: 700 16px Arial, sans-serif; fill: #0f172a; }
      .label { font: 700 13px Arial, sans-serif; fill: #475569; }
      .line { stroke: #334155; stroke-width: 2.2; fill: none; marker-end: url(#arrow); }
      .line-soft { stroke: #64748b; stroke-width: 1.8; fill: none; marker-end: url(#arrow-soft); stroke-dasharray: 5 4; }
      .lifeline { stroke: #94a3b8; stroke-width: 1.8; stroke-dasharray: 8 6; }
    </style>
  </defs>
  <rect class="bg" x="0" y="0" width="1400" height="980"/>
  <text class="title" x="40" y="48">Sequence Diagram - Card Management</text>
  <rect class="box-soft" x="15" y="85" width="170" height="55" rx="16" ry="16"/><text class="text-bold" x="100.0" y="113" text-anchor="middle">Kullanıcı</text><line class="lifeline" x1="100" y1="140" x2="100" y2="860"/><rect class="box" x="245" y="85" width="170" height="55" rx="16" ry="16"/><text class="text-bold" x="330.0" y="113" text-anchor="middle">cards()</text><line class="lifeline" x1="330" y1="140" x2="330" y2="860"/><rect class="box" x="485" y="85" width="170" height="55" rx="16" ry="16"/><text class="text-bold" x="570.0" y="113" text-anchor="middle">models.py</text><line class="lifeline" x1="570" y1="140" x2="570" y2="860"/><rect class="box" x="725" y="85" width="170" height="55" rx="16" ry="16"/><text class="text-bold" x="810.0" y="113" text-anchor="middle">SQLite</text><line class="lifeline" x1="810" y1="140" x2="810" y2="860"/><rect class="box" x="995" y="85" width="170" height="55" rx="16" ry="16"/><text class="text-bold" x="1080.0" y="113" text-anchor="middle">edit_card()</text><line class="lifeline" x1="1080" y1="140" x2="1080" y2="860"/><rect class="box" x="1185" y="85" width="170" height="55" rx="16" ry="16"/><text class="text-bold" x="1270.0" y="113" text-anchor="middle">export()</text><line class="lifeline" x1="1270" y1="140" x2="1270" y2="860"/><path class="line" d="M 100 170 L 330 170"/><text class="label" x="215.0" y="164.0" text-anchor="middle">kart listesi aç</text><path class="line" d="M 330 220 L 570 220"/><text class="label" x="450.0" y="214.0" text-anchor="middle">list_cards()</text><path class="line" d="M 570 270 L 810 270"/><text class="label" x="690.0" y="264.0" text-anchor="middle">SELECT * FROM cards</text><path class="line" d="M 810 320 L 570 320"/><text class="label" x="690.0" y="314.0" text-anchor="middle">rows</text><path class="line-soft" d="M 570 370 L 330 370"/><text class="label" x="450.0" y="364.0" text-anchor="middle">cards.html</text><path class="line" d="M 100 430 L 1080 430"/><text class="label" x="590.0" y="424.0" text-anchor="middle">düzenle / sil</text><path class="line" d="M 1080 480 L 570 480"/><text class="label" x="825.0" y="474.0" text-anchor="middle">get_card() / update_card() / delete_card()</text><path class="line" d="M 570 530 L 810 530"/><text class="label" x="690.0" y="524.0" text-anchor="middle">CRUD sorguları</text><path class="line" d="M 100 590 L 1270 590"/><text class="label" x="685.0" y="584.0" text-anchor="middle">CSV / JSON indir</text><path class="line" d="M 1270 640 L 570 640"/><text class="label" x="920.0" y="634.0" text-anchor="middle">veri derle</text><path class="line-soft" d="M 570 690 L 100 690"/><text class="label" x="335.0" y="684.0" text-anchor="middle">dosya</text><text class="text" x="700" y="930" text-anchor="middle" style="font-size:15px; fill:#0f172a;"><tspan x="700" dy="0">Kart yönetimi, listeleme, düzenleme, silme ve dışa aktarma işlemlerini gösterir.</tspan></text>
</svg>
